<svg id="visual" viewBox="0 0 960 540" width="960" height="540" xmlns="http://www.w3.org/2000/svg" xmlns:xlink="http://www.w3.org/1999/xlink" version="1.1"><rect x="0" y="0" width="960" height="540" fill="#103d33"></rect><g transform="translate(936.40517192276 564.8691369793114)"><path d="M319 -528.6C445.6 -479.4 602.8 -459.1 631.4 -375.8C660 -292.5 560 -146.3 499 -35.2C438 75.8 416 151.7 376.3 215.6C336.5 279.5 279 331.6 213.3 398.3C147.7 465.1 73.8 546.5 -14.7 572C-103.2 597.4 -206.3 566.7 -287.3 508.8C-368.3 450.9 -427.1 365.7 -430.3 276.3C-433.6 187 -381.3 93.5 -425.9 -25.7C-470.5 -145 -612 -290 -586.1 -340.2C-560.3 -390.5 -367.1 -345.9 -241.6 -395.8C-116 -445.6 -58 -589.8 19.1 -622.8C96.2 -655.9 192.3 -577.8 319 -528.6" fill="#FCAF3C"></path></g></svg>